<?xml version="1.0" standalone="no"?><!-- Generator: Gravit.io --><svg xmlns="http://www.w3.org/2000/svg" xmlns:xlink="http://www.w3.org/1999/xlink" style="isolation:isolate" viewBox="0 0 1024 768" width="1024" height="768"><defs><clipPath id="_clipPath_pdAaVoynsosy60CVyVAmAbTSkQeltnRl"><rect width="1024" height="768"/></clipPath></defs><g clip-path="url(#_clipPath_pdAaVoynsosy60CVyVAmAbTSkQeltnRl)"><g><g opacity="0.1"><path d=" M 599.426 136.072 C 540.156 133.765 483.707 112.346 429.795 88.907 C 375.882 65.469 322.501 39.497 264.651 27.081 C 227.443 19.094 184.895 17.966 154.912 40.297 C 126.065 61.829 116.742 98.894 111.724 133.314 C 107.96 159.224 105.735 186.476 116.074 210.725 C 123.244 227.561 135.983 241.71 144.793 257.838 C 175.435 313.944 153.777 383.132 120.561 437.915 C 104.993 463.609 86.915 488.155 74.891 515.49 C 62.867 542.825 57.308 574.19 67.821 602.099 C 78.252 629.782 103.097 650.535 130.003 665.145 C 184.666 694.818 249.055 703.318 311.896 708.127 C 450.931 718.78 590.717 714.166 730.118 709.552 C 781.713 707.84 833.528 706.107 884.281 697.176 C 912.469 692.214 941.573 684.339 962.031 665.391 C 988.003 641.266 994.441 600.407 977.041 570.16 C 947.846 519.417 867.147 506.806 846.716 452.351 C 835.479 422.381 847.018 388.987 863.337 361.19 C 898.357 301.548 957.05 249.236 960.145 181.063 C 962.27 134.247 934.054 87.359 890.426 65.202 C 844.692 41.979 781.283 44.901 747.563 83.34 C 712.8 122.876 651.754 138.102 599.426 136.072 Z " fill="rgb(108,99,255)"/></g><linearGradient id="_lgradient_0" x1="0.5002281960998043" y1="1.000063385587517" x2="0.5002281960998044" y2="-0.00009160240258720975" gradientTransform="matrix(387.482,0,0,524.06,62.021,207.954)" gradientUnits="userSpaceOnUse"><stop offset="0%" stop-opacity="0.25" style="stop-color:rgb(128,128,128)"/><stop offset="54%" stop-opacity="0.12" style="stop-color:rgb(128,128,128)"/><stop offset="100%" stop-opacity="0.1" style="stop-color:rgb(128,128,128)"/></linearGradient><path d=" M 446.938 689.835 C 446.022 686.123 445.107 682.371 443.275 679.141 C 441.577 676.402 439.559 673.93 437.277 671.789 C 430.637 665.043 422.487 658.194 413.686 659.896 C 410.964 660.57 408.334 661.646 405.865 663.095 C 404.583 663.761 403.292 664.428 401.973 664.992 C 398.261 666.729 394.158 667.13 390.233 666.14 C 388.218 665.535 386.341 664.448 384.353 663.771 C 383.41 663.454 382.445 663.221 381.469 663.074 C 383.389 662.112 385.252 661.013 387.046 659.783 C 396.918 653.016 404.794 640.784 403.695 627.701 C 403.319 623.302 401.973 619.088 400.636 614.936 L 397.119 604.047 C 395.599 599.33 394.024 594.522 391.249 590.605 C 388.163 586.237 383.767 583.274 379.225 581.069 C 369.472 576.322 358.812 574.651 348.29 573.031 L 347.557 572.918 L 347.557 445.646 C 347.557 441.115 344.277 437.443 340.231 437.443 L 326.402 437.443 Q 325.487 431.168 324.571 424.914 C 322.831 413.01 321.027 400.891 316.127 390.176 C 312.922 383.163 307.821 376.468 300.944 375.094 C 299.592 374.957 298.264 374.612 296.997 374.068 C 294.982 372.961 293.883 370.5 292.335 368.685 C 288.342 364 281.849 363.928 276.501 361.508 C 271.776 359.406 267.911 355.449 263.607 352.403 C 259.303 349.358 253.955 347.195 249.192 349.174 C 249.192 349.563 249.128 349.953 249.092 350.332 L 246.033 348.753 C 242.736 347.041 239.375 345.288 236.729 342.478 C 233.331 338.89 231.518 334.132 230.107 329.077 C 229.961 328.555 229.824 328.052 229.677 327.488 C 235.531 320.802 239.493 312.332 241.069 303.137 L 241.811 305.833 C 241.978 306.439 242.174 307.035 242.397 307.618 C 242.776 308.744 243.407 309.743 244.229 310.519 C 244.464 310.725 244.722 310.894 244.998 311.022 C 245.251 311.134 245.516 311.21 245.786 311.247 C 246.166 311.3 246.552 311.268 246.921 311.155 C 248.176 310.72 249.186 309.672 249.669 308.305 C 249.815 307.901 249.922 307.482 249.989 307.054 C 250.025 306.796 250.046 306.535 250.053 306.274 C 250.053 306.192 250.053 306.11 250.053 306.028 C 250.053 305.946 250.053 305.669 250.053 305.495 C 250.053 305.321 250.053 305.311 250.053 305.208 C 250.053 305.106 250.053 304.87 250.008 304.695 L 250.008 304.429 C 250.008 304.224 249.953 304.019 249.916 303.824 C 249.879 303.629 249.916 303.711 249.916 303.66 C 249.87 303.404 249.815 303.137 249.769 302.881 C 249.769 302.819 249.769 302.747 249.769 302.686 C 249.769 302.624 249.687 302.265 249.641 302.05 C 249.595 301.835 249.577 301.773 249.55 301.63 L 249.55 301.568 L 249.55 301.568 C 249.458 301.158 249.376 300.758 249.293 300.348 C 248.628 296.79 248.458 293.137 248.79 289.521 C 249.338 284.213 250.213 278.954 251.409 273.782 L 251.601 272.849 C 251.674 272.49 251.748 272.131 251.812 271.762 C 251.958 271.024 252.105 270.286 252.242 269.537 L 252.242 269.537 L 252.572 267.651 L 252.819 265.969 L 252.819 265.754 C 253.333 261.944 253.441 258.078 253.14 254.24 L 253.14 254.24 C 252.718 248.877 251.235 243.802 247.984 239.762 C 245.685 236.901 242.654 234.789 240.52 231.785 C 238.524 228.976 237.397 225.51 235.327 222.752 C 229.613 215.114 214.942 209.228 205.94 208.203 C 195.628 207.034 178.97 209.987 170.655 216.805 C 167.578 219.317 165.471 222.957 163.328 226.402 C 159.39 232.81 154.921 239.208 148.612 242.807 C 146.231 244.161 143.502 245.186 141.917 247.544 C 140.975 249.143 140.364 250.958 140.131 252.855 C 138.918 259.531 138.286 266.323 138.245 273.136 L 138.245 273.136 C 138.245 273.987 138.245 274.838 138.245 275.699 C 138.264 278.254 138.75 280.777 139.674 283.112 C 139.82 283.461 139.985 283.799 140.159 284.138 L 140.269 284.353 C 141.376 286.126 142.356 287.994 143.199 289.941 C 143.409 290.486 143.56 291.058 143.648 291.643 C 143.805 293.145 143.718 294.667 143.392 296.134 L 143.392 296.134 C 143.392 296.36 143.309 296.585 143.273 296.811 L 143.19 297.252 C 143.19 297.405 143.19 297.559 143.117 297.703 C 143.044 298.144 142.98 298.585 142.925 299.015 L 142.925 299.015 C 142.786 300.201 142.854 301.406 143.126 302.563 C 143.38 303.866 144.12 304.986 145.159 305.639 C 145.681 305.919 146.236 306.112 146.808 306.213 C 147.384 306.326 147.971 306.397 148.538 306.541 C 149.269 306.727 149.974 307.02 150.636 307.412 C 151.27 307.752 151.863 308.179 152.403 308.684 C 152.67 308.956 152.924 309.243 153.163 309.545 C 153.647 310.165 154.082 310.831 154.464 311.534 Q 154.757 312.078 155.013 312.642 C 155.669 314.125 156.194 315.678 156.579 317.276 C 156.817 318.23 157.019 319.193 157.193 320.157 C 157.275 320.588 157.348 321.018 157.412 321.439 C 157.476 321.859 157.541 322.29 157.596 322.71 L 157.596 322.71 C 157.845 322.694 158.092 322.639 158.328 322.546 C 159.674 322.003 160.425 320.249 160.847 318.547 C 160.92 318.26 160.984 317.984 161.039 317.707 C 161.25 316.681 161.469 315.553 161.68 314.477 C 165.29 323.06 171.11 330.237 178.393 335.086 C 178.649 335.937 178.897 336.778 179.116 337.639 C 180.316 342.283 180.893 347.143 178.814 351.204 C 177.331 354.085 174.84 355.859 172.056 357.089 C 171.654 356.49 171.138 355.999 170.545 355.654 C 168.136 354.3 165.242 355.941 163.218 357.961 C 159.555 361.672 156.57 366.994 151.753 368.214 C 150.013 368.665 148.09 368.573 146.643 369.762 C 145.686 370.77 144.884 371.947 144.271 373.248 C 142.147 376.663 138.617 378.634 134.902 378.477 C 133.226 378.385 131.239 377.954 130.094 379.328 C 129.243 380.353 129.179 381.973 128.263 382.948 C 127.036 384.301 125.021 383.645 123.308 383.563 C 120.048 383.409 117.017 385.767 115.158 388.792 C 113.299 391.817 112.411 395.436 111.495 399.045 L 111.495 399.107 C 111.26 399.298 111.037 399.507 110.826 399.732 C 109.938 400.791 109.25 402.039 108.802 403.403 C 101.396 422.281 97.025 442.475 95.89 463.055 C 95.908 464.058 95.707 465.051 95.304 465.947 C 94.894 466.532 94.444 467.081 93.958 467.587 C 93.078 468.792 92.673 470.345 92.833 471.89 C 92.994 473.436 93.707 474.843 94.809 475.79 C 95.073 475.255 95.403 474.765 95.789 474.334 C 95.688 474.806 95.597 475.267 95.533 475.687 C 95.165 478.679 95.131 481.71 95.432 484.71 Q 96.732 506.078 98.06 527.415 C 98.307 531.444 98.555 535.463 98.884 539.483 Q 99.846 551.151 101.632 562.726 C 101.687 563.075 101.751 563.434 101.833 563.752 C 94.37 566.407 87.73 571.206 84.937 579.214 C 83.966 581.982 83.527 584.996 82.336 587.652 C 81.027 590.564 78.875 592.891 77.446 595.742 C 74.982 600.643 74.873 606.651 75.77 612.147 C 77.501 622.861 82.675 632.438 89.507 640.23 C 89.205 640.23 88.893 640.23 88.591 640.23 C 86.359 640.507 84.216 641.367 82.336 642.742 C 67.885 652.196 59.625 672.476 62.638 690.994 C 63.233 694.613 64.268 698.284 66.429 701.042 C 68.225 703.234 70.535 704.819 73.096 705.615 C 74.697 706.154 76.346 706.498 78.014 706.64 C 89.278 707.665 100.185 701.821 111.477 701.329 C 115.217 701.262 118.958 701.457 122.677 701.913 Q 130.836 702.672 139.023 702.877 C 147.897 703.113 152.888 700.468 158.548 693.044 C 159.939 691.198 161.1 689.149 162 686.954 C 166.817 686.646 172.138 686.175 175.985 685.826 L 176.039 686.421 C 176.25 688.471 176.571 690.83 178.036 692.121 C 178.86 692.758 179.797 693.188 180.783 693.383 C 190.033 695.925 199.392 698.509 208.916 698.509 C 213.386 698.408 217.847 698.025 222.277 697.361 L 239.009 695.197 C 243.885 695.889 248.696 697.063 253.387 698.704 C 258.222 700.539 262.737 703.267 267.462 705.43 C 278.452 710.413 290.265 712.197 301.969 713.94 C 303.966 714.237 306.255 714.443 307.73 712.915 C 309.634 710.864 309.002 707.44 308.462 704.569 C 308.242 703.39 308.078 702.21 307.949 701.021 C 315.847 703.352 323.574 706.355 331.064 710.003 L 332.373 710.649 C 332.758 712.884 334.599 714.668 336.366 717.078 C 336.946 718.095 337.625 719.037 338.39 719.887 C 339.264 720.522 340.258 720.922 341.293 721.056 C 353.648 723.633 366.264 724.271 378.776 722.953 C 381.337 722.562 383.927 722.462 386.505 722.655 C 388.4 722.944 390.269 723.414 392.092 724.06 L 402.687 727.464 C 410.499 729.966 418.494 732.498 426.599 731.934 C 428.242 731.819 429.874 731.555 431.48 731.145 C 437.89 729.484 443.861 725.475 446.938 719.026 C 451.288 710.259 449.283 699.473 446.938 689.835 Z " fill="url(#_lgradient_0)"/><path d=" M 150.489 687.836 C 148.557 682.914 146.725 677.254 148.657 672.333 C 149.919 669.434 152.085 667.154 154.747 665.925 C 157.382 664.722 160.158 663.955 162.989 663.648 C 171.877 662.343 180.87 662.206 189.785 663.238 C 190.436 669.001 189.062 674.845 187.881 680.412 C 186.809 685.539 186.196 686.298 181.47 686.564 C 178.411 686.749 151.212 689.65 150.489 687.836 Z " fill="rgb(251,190,190)"/><ellipse vector-effect="non-scaling-stroke" cx="232.03978751043323" cy="613.623188168126" rx="130.9574529323341" ry="41.01265147417223" fill="rgb(70,67,83)"/><g opacity="0.1"><ellipse vector-effect="non-scaling-stroke" cx="232.03978751043323" cy="613.623188168126" rx="130.9574529323341" ry="41.01265147417223" fill="rgb(0,0,0)"/></g><path d=" M 255.521 397.117 C 251.032 406.829 243.576 414.412 234.512 418.485 C 229.161 420.668 223.529 421.866 217.836 422.033 C 211.618 422.35 205.271 421.899 199.429 419.521 C 191.589 416.342 185.078 409.842 180.197 402.264 C 175.316 394.687 171.955 386.034 169.034 377.308 C 167.495 372.766 166.03 367.927 166.753 363.128 C 171.47 361.929 176.635 360.165 179.071 355.479 C 181.15 351.46 180.573 346.641 179.373 342.048 C 179.034 340.746 178.64 339.454 178.246 338.213 C 177.331 335.24 174.171 329.59 176.415 327.047 C 177.816 325.438 183.686 324.617 185.71 323.571 C 191.947 320.352 197.698 315.697 204.548 314.169 C 210.473 312.847 216.59 314.087 222.506 315.461 C 223.291 315.589 224.045 315.892 224.723 316.353 C 225.495 317.082 226.067 318.042 226.371 319.122 C 228.056 323.715 229.045 328.79 230.401 333.579 C 231.811 338.592 233.624 343.299 237.022 346.856 C 239.668 349.635 243.038 351.378 246.335 353.07 L 254.449 357.233 C 255.892 357.838 257.201 358.786 258.286 360.011 C 259.347 361.644 259.981 363.575 260.118 365.589 C 261.572 376.378 259.964 387.406 255.521 397.117 Z " fill="rgb(251,190,190)"/><g opacity="0.1"><path d=" M 230.364 333.579 C 217.075 349.069 196.116 352.551 179.382 342.048 C 179.043 340.746 178.649 339.454 178.256 338.213 C 177.34 335.24 174.18 329.59 176.424 327.047 C 177.825 325.438 183.695 324.617 185.719 323.571 C 191.956 320.352 197.707 315.697 204.557 314.169 C 210.482 312.847 216.6 314.087 222.516 315.461 C 223.3 315.589 224.054 315.892 224.732 316.353 C 225.505 317.082 226.076 318.042 226.38 319.122 C 228.019 323.715 229.009 328.79 230.364 333.579 Z " fill="rgb(0,0,0)"/></g><ellipse vector-effect="non-scaling-stroke" cx="199.98726406545663" cy="298.85108810385316" rx="42.12617367054102" ry="47.16454919529809" fill="rgb(251,190,190)"/><path d=" M 328.335 451.921 L 324.873 428.441 C 323.124 416.66 321.32 404.653 316.429 394.041 C 313.215 387.09 308.114 380.466 301.237 379.092 C 299.882 378.957 298.55 378.612 297.28 378.067 C 295.266 376.98 294.167 374.54 292.619 372.735 C 288.626 368.101 282.124 368.029 276.776 365.671 C 272.05 363.62 268.186 359.673 263.882 356.658 C 259.577 353.644 254.22 351.532 249.458 353.459 C 248.689 362.636 247.874 372.018 244.394 380.374 C 239.806 391.392 231.02 399.5 220.484 402.438 C 209.949 405.376 198.791 402.829 190.124 395.508 C 181.965 388.628 176.735 378.016 174.299 366.912 C 173.704 364.205 173.027 361.098 170.801 359.857 C 168.393 358.504 165.499 360.145 163.475 362.134 C 159.812 365.815 156.817 371.085 152 372.325 C 150.26 372.776 148.337 372.684 146.89 373.863 C 145.928 374.857 145.123 376.025 144.509 377.319 C 142.368 380.706 138.845 382.657 135.14 382.507 C 133.465 382.414 131.477 381.984 130.333 383.347 C 129.481 384.373 129.417 385.972 128.501 386.926 C 127.265 388.269 125.259 387.613 123.537 387.541 C 120.277 387.387 117.246 389.725 115.378 392.668 C 113.51 395.61 112.63 399.25 111.715 402.777 C 121.724 427.733 130.882 452.72 140.892 477.676 C 141.361 478.617 141.609 479.675 141.615 480.752 C 141.414 481.87 140.988 482.923 140.37 483.828 C 135.461 492.656 135.617 503.761 136.157 514.137 C 136.697 524.513 137.357 535.474 133.217 544.773 C 132.091 547.326 130.626 549.664 129.554 552.217 C 127.045 558 126.138 576.496 127.604 582.71 L 334.644 582.71 C 330.697 570.56 332.199 546.178 333.024 533.279 C 333.6 524.257 332.108 515.244 331.467 506.221 C 330.066 487.796 331.055 470.315 328.335 451.921 Z " fill="rgb(145,172,210)"/><path d=" M 95.853 478.784 C 95.487 481.751 95.45 484.758 95.743 487.735 L 98.372 530.05 C 98.619 534.038 98.866 538.016 99.196 541.995 C 99.828 549.715 100.771 557.374 101.943 565.023 C 101.998 567.285 103.678 569.069 105.698 569.012 C 117.283 571.76 129.252 571.647 141.075 570.898 C 159.116 569.77 177.129 567.197 195.198 567.638 C 199.85 567.751 205.271 567.638 208.092 563.536 C 210.913 559.435 209.273 552.801 205.592 549.49 C 201.91 546.178 196.91 545.388 192.185 545.388 C 185.93 545.317 179.675 546.311 173.439 545.901 C 167.715 545.522 162.119 543.973 156.57 542.425 L 141.001 538.088 C 141.597 532.808 143.392 527.835 145.095 522.821 C 148.154 513.932 151.011 504.745 151.066 495.22 C 151.121 485.694 147.916 475.677 140.947 470.222 C 135.214 465.742 127.832 464.911 120.845 465.096 C 115.762 465.26 106.98 463.896 102.337 466.121 C 98.665 467.926 96.54 474.754 95.853 478.784 Z " fill="rgb(251,190,190)"/><path d=" M 338.93 575.533 C 341.98 574.231 345.341 574.702 348.61 575.194 C 359.133 576.804 369.811 578.455 379.564 583.161 C 384.143 585.355 388.502 588.288 391.597 592.604 C 394.345 596.49 395.947 601.248 397.467 605.933 L 400.984 616.72 C 402.321 620.821 403.676 625.004 404.052 629.362 C 405.151 642.271 397.266 654.441 387.348 661.147 C 377.43 667.852 365.754 670.241 354.38 672.743 C 343.006 675.245 331.586 678.013 320.257 680.945 C 314.974 682.481 309.613 683.662 304.204 684.483 C 292.079 686.021 279.404 683.755 267.884 688.246 C 263.305 690.04 258.808 692.706 254.055 693.946 C 250.898 694.69 247.706 695.234 244.494 695.577 L 222.69 698.366 C 218.256 699.03 213.792 699.413 209.319 699.514 C 199.795 699.514 190.426 696.992 181.177 694.469 C 180.194 694.276 179.258 693.854 178.43 693.229 C 176.964 691.937 176.644 689.65 176.433 687.579 Q 175.032 673.83 173.979 660.049 C 173.759 657.066 173.594 653.836 175.05 651.324 C 176.882 648.248 180.454 647.284 183.714 646.69 C 197.538 644.158 211.543 643.07 225.547 643.439 C 230.868 637.482 239.641 637.452 246.61 634.212 C 249.174 632.893 251.655 631.383 254.037 629.69 C 266.503 621.547 280.435 616.618 294.817 615.264 C 297.633 615.167 300.432 614.72 303.16 613.931 C 308.554 612.054 313.472 606.948 319.012 608.199 C 319.699 606.077 320.175 603.237 321.759 601.781 C 322.547 601.032 323.518 600.53 324.241 599.73 C 325.771 597.997 325.908 595.27 325.679 592.85 C 325.45 590.431 324.937 587.949 325.496 585.591 C 325.728 584.698 326.07 583.846 326.512 583.059 C 329.26 577.747 333.408 575.02 338.93 575.533 Z " fill="rgb(70,67,83)"/><g opacity="0.05"><path d=" M 338.93 575.533 C 341.98 574.231 345.341 574.702 348.61 575.194 C 359.133 576.804 369.811 578.455 379.564 583.161 C 384.143 585.355 388.502 588.288 391.597 592.604 C 394.345 596.49 395.947 601.248 397.467 605.933 L 400.984 616.72 C 402.321 620.821 403.676 625.004 404.052 629.362 C 405.151 642.271 397.266 654.441 387.348 661.147 C 377.43 667.852 365.754 670.241 354.38 672.743 C 343.006 675.245 331.586 678.013 320.257 680.945 C 314.974 682.481 309.613 683.662 304.204 684.483 C 292.079 686.021 279.404 683.755 267.884 688.246 C 263.305 690.04 258.808 692.706 254.055 693.946 C 250.898 694.69 247.706 695.234 244.494 695.577 L 222.69 698.366 C 218.256 699.03 213.792 699.413 209.319 699.514 C 199.795 699.514 190.426 696.992 181.177 694.469 C 180.194 694.276 179.258 693.854 178.43 693.229 C 176.964 691.937 176.644 689.65 176.433 687.579 Q 175.032 673.83 173.979 660.049 C 173.759 657.066 173.594 653.836 175.05 651.324 C 176.882 648.248 180.454 647.284 183.714 646.69 C 197.538 644.158 211.543 643.07 225.547 643.439 C 230.868 637.482 239.641 637.452 246.61 634.212 C 249.174 632.893 251.655 631.383 254.037 629.69 C 266.503 621.547 280.435 616.618 294.817 615.264 C 297.633 615.167 300.432 614.72 303.16 613.931 C 308.554 612.054 313.472 606.948 319.012 608.199 C 319.699 606.077 320.175 603.237 321.759 601.781 C 322.547 601.032 323.518 600.53 324.241 599.73 C 325.771 597.997 325.908 595.27 325.679 592.85 C 325.45 590.431 324.937 587.949 325.496 585.591 C 325.728 584.698 326.07 583.846 326.512 583.059 C 329.26 577.747 333.408 575.02 338.93 575.533 Z " fill="rgb(0,0,0)"/></g><path d=" M 158.914 694.172 C 153.246 701.524 148.254 704.148 139.381 703.913 Q 131.193 703.697 123.025 702.959 C 119.302 702.508 115.559 702.313 111.815 702.375 C 100.515 702.867 89.608 708.66 78.334 707.645 C 76.667 707.498 75.019 707.154 73.416 706.619 C 70.859 705.831 68.548 704.262 66.74 702.087 C 64.579 699.35 63.544 695.72 62.949 692.132 C 59.936 673.737 68.196 653.703 82.657 644.342 C 84.543 642.977 86.688 642.124 88.921 641.85 C 91.11 641.84 93.274 642.372 95.258 643.409 L 95.395 643.47 C 101.27 646.177 106.606 650.164 111.092 655.2 C 111.773 656.072 112.585 656.805 113.491 657.363 C 114.396 657.746 115.354 657.947 116.321 657.958 L 128.354 658.809 C 130.393 658.877 132.42 659.19 134.399 659.742 C 136.58 660.595 138.705 661.623 140.754 662.818 C 147.229 666.058 154.409 666.919 161.405 668.17 C 162.079 668.212 162.723 668.5 163.237 668.99 C 163.516 669.379 163.71 669.835 163.805 670.323 C 165.801 678.689 163.97 687.619 158.914 694.172 Z " fill="rgb(63,61,86)"/><g opacity="0.1"><path d=" M 95.395 643.48 C 90.727 648.472 86.676 654.141 83.353 660.337 C 78.019 670.562 74.668 681.93 73.517 693.7 C 73.081 697.994 73.047 702.328 73.416 706.63 C 70.859 705.841 68.548 704.272 66.74 702.098 C 64.579 699.36 63.544 695.731 62.949 692.142 C 59.936 673.748 68.196 653.713 82.657 644.352 C 84.543 642.988 86.688 642.135 88.921 641.86 C 91.11 641.85 93.274 642.383 95.258 643.419 L 95.395 643.48 Z " fill="rgb(0,0,0)"/></g><path d=" M 328.454 668.99 C 335.185 668.785 342.74 668.406 347.685 673.481 C 352.402 678.28 353.024 686.195 353.336 693.321 L 353.693 701.595 C 353.803 704.118 353.894 706.722 352.988 709.06 C 351.376 713.161 346.953 715.14 342.914 714.904 C 338.875 714.668 335.166 712.689 331.476 710.905 C 321.456 706.072 311.024 702.393 300.339 699.924 Q 300.861 691.342 302.079 682.842 C 302.638 678.915 302.729 672.343 305.074 669.083 C 307.556 665.637 310.788 667.504 314.158 668.139 C 318.887 668.947 323.675 669.232 328.454 668.99 L 328.454 668.99 Z " fill="rgb(251,190,190)"/><path d=" M 150.571 585.847 C 150.571 586.873 149.134 585.847 149.005 584.75 C 147.998 576.455 142.119 569.617 135.269 566.295 C 128.419 562.973 120.616 562.798 113.198 563.588 C 101.98 564.777 89.388 569.586 85.285 581.326 C 84.314 584.074 83.875 587.047 82.684 589.682 C 81.365 592.573 79.213 594.88 77.785 597.69 C 75.321 602.55 75.221 608.507 76.109 614.003 C 78.499 628.665 87.455 641.204 98.307 649.889 C 109.16 658.573 121.843 663.761 134.49 668.437 C 167.932 680.785 202.242 689.96 237.058 695.864 C 242.7 696.817 248.396 697.699 253.799 699.729 C 258.634 701.544 263.158 704.261 267.884 706.394 C 278.873 711.336 290.696 713.099 302.409 714.832 C 304.405 715.119 306.695 715.324 308.169 713.807 C 310.074 711.828 309.442 708.383 308.902 705.543 C 306.914 694.744 308.582 683.503 313.581 674.004 C 315.541 670.313 318.087 666.529 317.721 662.254 C 317.281 657.271 312.849 653.744 308.435 652.944 C 304.021 652.144 299.533 653.323 295.101 653.969 C 293.571 654.195 291.905 654.338 290.568 653.467 C 289.909 652.969 289.312 652.376 288.791 651.703 C 282.527 644.938 273.083 643.46 265.402 648.043 C 263.763 649.068 261.281 646.782 259.577 645.921 L 240.318 636.16 C 218.193 624.953 195.958 613.695 172.55 606.6 C 170.683 606.189 168.908 605.362 167.33 604.17 C 166.167 603.144 165.334 601.75 164.262 600.612 C 161.927 598.141 158.676 597.157 155.874 595.403 C 153.072 593.65 149.93 589.364 150.571 585.847 Z " fill="rgb(70,67,83)"/><path d=" M 447.479 719.846 C 444.401 726.234 438.431 730.212 432.02 731.852 C 430.411 732.259 428.776 732.519 427.13 732.632 C 419.025 733.196 411.021 730.684 403.209 728.202 L 392.605 724.86 C 390.781 724.217 388.913 723.751 387.018 723.465 C 384.44 723.272 381.85 723.372 379.289 723.763 C 366.755 725.068 354.121 724.433 341.742 721.876 C 340.706 721.751 339.712 721.354 338.839 720.717 C 338.074 719.878 337.395 718.946 336.815 717.939 C 333.93 714.053 330.826 711.787 334.242 706.66 C 336.21 703.687 339.864 702.2 341.394 698.786 C 342.923 695.372 341.943 690.522 341.037 686.995 C 339.8 682.125 335.734 680.023 334.278 675.552 C 333.188 672.179 335.02 668.262 337.776 666.427 C 340.533 664.592 343.94 664.448 347.118 664.92 C 350.295 665.391 353.409 666.396 356.605 666.673 C 366.001 667.514 375.608 662.09 384.628 665.145 C 386.615 665.822 388.493 666.899 390.507 667.493 C 394.435 668.477 398.538 668.079 402.257 666.355 C 403.576 665.802 404.867 665.135 406.149 664.479 C 408.622 663.038 411.255 661.972 413.979 661.311 C 422.78 659.619 430.939 666.437 437.579 673.092 C 439.858 675.209 441.875 677.657 443.577 680.371 C 445.409 683.57 446.38 687.292 447.24 690.963 C 449.667 700.447 451.673 711.131 447.479 719.846 Z " fill="rgb(63,61,86)"/><g opacity="0.1"><path d=" M 447.479 719.846 C 444.401 726.234 438.431 730.212 432.02 731.852 C 434.514 726.428 435.638 720.345 435.271 714.258 C 434.722 704.507 430.894 695.32 426.012 687.22 C 423.01 682.234 419.594 677.576 415.811 673.307 C 412.898 670.026 409.318 667.422 406.186 664.417 C 408.658 662.976 411.291 661.911 414.016 661.249 C 422.816 659.557 430.976 666.376 437.616 673.03 C 439.895 675.148 441.912 677.596 443.614 680.31 C 445.445 683.509 446.416 687.231 447.277 690.901 C 449.667 700.447 451.673 711.131 447.479 719.846 Z " fill="rgb(0,0,0)"/></g><path d=" M 111.193 403.536 C 110.301 404.581 109.609 405.82 109.16 407.176 C 101.757 425.854 97.384 445.86 96.247 466.255 C 96.267 467.249 96.062 468.233 95.652 469.115 C 95.247 469.702 94.796 470.248 94.306 470.745 C 93.404 471.941 92.986 473.501 93.149 475.055 C 93.312 476.609 94.042 478.018 95.166 478.948 C 96.677 475.759 100.295 474.724 103.509 474.447 C 118.904 473.083 133.941 481.101 149.381 480.496 C 148.291 476.282 146.725 472.232 145.837 467.967 C 141.908 449.029 151.707 428.41 145.699 410.17 C 144.5 406.52 142.494 402.931 139.335 401.331 C 138.027 400.74 136.658 400.333 135.259 400.122 C 131.358 399.332 123.592 395.959 119.819 397.312 C 118.427 397.815 117.878 399.281 116.724 400.163 C 114.975 401.424 112.649 401.885 111.193 403.536 Z " fill="rgb(145,172,210)"/><path d="M 151.389 440.857 L 340.164 440.857 C 344.426 440.857 347.887 444.318 347.887 448.58 L 347.887 578.729 C 347.887 582.992 344.426 586.452 340.164 586.452 L 151.389 586.452 C 147.127 586.452 143.666 582.992 143.666 578.729 L 143.666 448.58 C 143.666 444.318 147.127 440.857 151.389 440.857 Z" style="stroke:none;fill:#3F3D56;stroke-miterlimit:10;"/><ellipse vector-effect="non-scaling-stroke" cx="245.31869008049537" cy="513.6548501998307" rx="5.494718304853166" ry="6.151897721125806" fill="rgb(255,255,255)"/><path d=" M 170.884 222.301 C 167.807 224.792 165.7 228.371 163.557 231.806 C 159.61 238.152 155.141 244.489 148.831 248.026 C 146.441 249.369 143.712 250.384 142.128 252.722 C 141.188 254.303 140.577 256.101 140.342 257.982 C 139.133 264.596 138.502 271.327 138.456 278.078 C 138.456 281.441 138.584 284.907 139.912 287.962 C 141.166 290.833 143.428 293.263 143.895 296.39 C 144.253 298.831 143.447 301.261 143.163 303.711 C 142.879 306.162 143.373 309.063 145.397 310.232 C 146.488 310.691 147.627 310.991 148.786 311.124 C 154.876 312.642 156.918 320.639 157.843 327.252 C 159.912 327.119 160.847 324.463 161.277 322.3 L 167.623 290.71 C 168.31 287.286 169.455 283.318 172.505 282.118 C 174.547 281.328 176.781 282.067 178.915 282.272 C 187.294 283.041 194.383 275.792 202.579 273.792 C 205.203 273.2 207.885 273 210.555 273.198 C 217.021 273.557 224.539 276.53 225.913 283.287 C 226.142 284.384 226.28 285.696 227.195 286.24 C 228.111 286.783 229.073 286.322 230.034 286.24 C 234.137 285.778 236.555 290.946 237.736 295.17 L 242.04 310.55 C 242.681 312.877 243.762 315.615 246.015 315.912 C 248.094 316.199 249.861 313.995 250.172 311.811 C 250.484 309.627 249.806 307.361 249.357 305.167 C 247.333 295.068 250.429 284.732 252.315 274.613 C 254.202 264.493 254.541 252.866 248.213 245.073 C 245.914 242.254 242.892 240.152 240.749 237.178 C 238.753 234.389 237.626 230.965 235.556 228.227 C 229.833 220.671 215.153 214.837 206.151 213.873 C 195.866 212.622 179.199 215.544 170.884 222.301 Z " fill="rgb(63,61,86)"/><g style="opacity:0.1;"><g opacity="0.1"><path d=" M 246.051 308.735 C 243.798 308.428 242.718 305.659 242.077 303.373 Q 239.925 295.673 237.773 287.993 C 236.591 283.758 234.174 278.591 230.071 279.062 C 229.109 279.175 228.074 279.596 227.232 279.062 C 226.389 278.529 226.179 277.207 225.95 276.11 C 224.576 269.342 217.058 266.379 210.592 266.02 C 207.922 265.824 205.24 266.021 202.616 266.605 C 194.419 268.656 187.331 275.833 178.952 275.084 C 176.79 274.889 174.556 274.151 172.541 274.941 C 169.455 276.13 168.347 280.067 167.66 283.533 L 161.314 315.113 C 160.883 317.286 159.949 319.942 157.879 320.065 C 156.964 313.462 154.912 305.464 148.822 303.947 C 147.665 303.804 146.527 303.505 145.434 303.055 C 144.637 302.568 144.013 301.79 143.666 300.85 C 143.502 301.804 143.309 302.758 143.199 303.711 C 142.925 306.151 143.41 309.063 145.434 310.232 C 146.524 310.691 147.663 310.991 148.822 311.124 C 154.912 312.642 156.954 320.639 157.879 327.252 C 159.949 327.119 160.883 324.463 161.314 322.3 L 167.66 290.71 C 168.347 287.286 169.492 283.318 172.541 282.118 C 174.583 281.328 176.818 282.067 178.952 282.272 C 187.331 283.041 194.419 275.792 202.616 273.792 C 205.239 273.2 207.921 273 210.592 273.198 C 217.058 273.557 224.576 276.53 225.95 283.287 C 226.179 284.384 226.316 285.696 227.232 286.24 C 228.148 286.783 229.109 286.322 230.071 286.24 C 234.174 285.778 236.591 290.946 237.773 295.17 Q 239.916 302.87 242.077 310.55 C 242.718 312.877 243.798 315.615 246.051 315.912 C 248.13 316.199 249.898 313.995 250.209 311.811 C 250.35 309.973 250.163 308.123 249.66 306.367 C 248.992 307.897 247.57 308.83 246.051 308.735 L 246.051 308.735 Z " fill="rgb(0,0,0)"/></g><g opacity="0.1"><path d=" M 143.905 289.213 C 143.437 286.086 141.157 283.656 139.921 280.785 C 139.126 278.849 138.666 276.761 138.565 274.633 C 138.565 275.781 138.474 276.93 138.465 278.088 C 138.465 281.451 138.593 284.917 139.921 287.972 C 140.937 290.3 142.613 292.351 143.456 294.719 C 143.9 292.929 144.052 291.064 143.905 289.213 Z " fill="rgb(0,0,0)"/></g><g opacity="0.1"><path d=" M 252.352 267.394 C 250.685 276.335 248.084 285.44 248.89 294.401 C 249.412 287.788 251.134 281.134 252.352 274.572 C 253.368 269.588 253.726 264.466 253.414 259.366 C 253.215 262.065 252.861 264.747 252.352 267.394 Z " fill="rgb(0,0,0)"/></g></g><g style="opacity:0.8;"><g opacity="0.8"><line x1="338.636" y1="319.606" x2="911.058" y2="319.606" vector-effect="non-scaling-stroke" stroke-width="3" stroke="rgb(63,61,86)" stroke-linejoin="miter" stroke-linecap="butt" stroke-miterlimit="10"/></g><g opacity="0.8"><path d=" M 389.49 319.596 C 389.49 319.596 416.863 323.851 402.686 290.969 C 402.686 290.969 441.149 264.311 441.149 264.311" fill="none" vector-effect="non-scaling-stroke" stroke-width="3" stroke="rgb(63,61,86)" stroke-linejoin="miter" stroke-linecap="butt" stroke-miterlimit="10"/></g><g opacity="0.8"><path d=" M 571.795 319.596 C 571.795 319.596 599.168 315.351 584.992 348.233 C 584.992 348.233 623.455 374.891 623.455 374.891" fill="none" vector-effect="non-scaling-stroke" stroke-width="3" stroke="rgb(63,61,86)" stroke-linejoin="miter" stroke-linecap="butt" stroke-miterlimit="10"/></g><g opacity="0.8"><path d=" M 834.287 319.596 C 834.287 319.596 806.905 315.351 821.091 348.233 C 821.091 348.233 782.628 374.891 782.628 374.891" fill="none" vector-effect="non-scaling-stroke" stroke-width="3" stroke="rgb(63,61,86)" stroke-linejoin="miter" stroke-linecap="butt" stroke-miterlimit="10"/></g><g opacity="0.8"><line x1="782.628" y1="374.881" x2="631.587" y2="374.881" vector-effect="non-scaling-stroke" stroke-width="3" stroke="rgb(63,61,86)" stroke-linejoin="miter" stroke-linecap="butt" stroke-miterlimit="10"/></g><g opacity="0.8"><ellipse vector-effect="non-scaling-stroke" cx="345.8342538229787" cy="319.6058497967602" rx="16.713101510595095" ry="18.712022235091126" fill="rgb(0,89,149)"/></g><g opacity="0.8"><ellipse vector-effect="non-scaling-stroke" cx="441.4331944635824" cy="264.0439602121259" rx="16.713101510595095" ry="18.712022235091112" fill="rgb(58,204,108)"/></g><g opacity="0.8"><ellipse vector-effect="non-scaling-stroke" cx="448.6312754429399" cy="319.6058497967602" rx="16.713101510595095" ry="18.712022235091126" fill="rgb(0,89,149)"/></g><g opacity="0.8"><ellipse vector-effect="non-scaling-stroke" cx="514.9708411102007" cy="319.6058497967602" rx="16.713101510595067" ry="18.712022235091126" fill="rgb(0,89,149)"/></g><g opacity="0.8"><ellipse vector-effect="non-scaling-stroke" cx="623.7296320909275" cy="374.60381542362563" rx="16.71310151059504" ry="18.712022235091126" fill="rgb(250,98,95)"/></g><g opacity="0.8"><ellipse vector-effect="non-scaling-stroke" cx="711.3520733256535" cy="374.60381542362563" rx="16.71310151059504" ry="18.712022235091126" fill="rgb(250,98,95)"/></g><g opacity="0.8"><ellipse vector-effect="non-scaling-stroke" cx="706.7822992687841" cy="319.6058497967602" rx="16.71310151059504" ry="18.712022235091126" fill="rgb(0,89,149)"/></g><g opacity="0.8"><ellipse vector-effect="non-scaling-stroke" cx="906.8266770208048" cy="319.6058497967602" rx="16.71310151059504" ry="18.712022235091126" fill="rgb(0,89,149)"/></g><g opacity="0.8"><ellipse vector-effect="non-scaling-stroke" cx="824.9920057338585" cy="319.6058497967602" rx="16.71310151059504" ry="18.712022235091126" fill="rgb(0,89,149)"/></g><g opacity="0.8"><rect x="317.756" y="147.527" width="56.074" height="43.268" transform="matrix(1,0,0,1,0,0)" fill="rgb(0,89,149)"/></g><g opacity="0.8"><rect x="413.602" y="147.527" width="56.074" height="43.268" transform="matrix(1,0,0,1,0,0)" fill="rgb(58,204,108)"/></g><g opacity="0.8"><rect x="567.381" y="169.161" width="56.074" height="43.268" transform="matrix(1,0,0,1,0,0)" fill="rgb(250,98,95)"/></g></g><g style="opacity:0.1;"><g opacity="0.1"><path d=" M 115.076 328.79 C 115.076 328.79 46.602 296.554 37.627 354.721 C 37.627 354.721 32.948 363.784 39.459 371.269 C 39.459 371.269 40.86 367.25 47.472 371.402 C 49.834 372.865 52.342 374.008 54.945 374.807 C 58.46 375.892 62.195 375.669 65.586 374.171 L 65.586 374.171 C 65.586 374.171 88.106 372.807 107.044 339.823 C 107.044 339.823 115.167 334.204 115.57 332.092 L 101.998 333.117 C 101.998 333.117 103.042 344.242 97.419 350.917 C 97.419 350.917 102.401 333.65 100.011 333.168 C 99.525 333.066 92.84 334.05 92.84 334.05 C 92.84 334.05 94.571 353.398 85.514 363.405 C 85.514 363.405 93.921 343.729 90.267 334.399 L 80.248 336.562 C 80.248 336.562 82.996 356.915 73.087 368.747 C 73.087 368.747 81.237 347.83 78.087 337.208 L 68.499 340.817 C 68.499 340.817 70.806 360.719 62.519 370.551 C 62.519 370.551 69.753 345.318 66.347 341.843 C 66.347 341.843 57.72 345.759 55.879 347.995 C 55.879 347.995 57.244 362.349 51.978 367.527 C 51.978 367.527 55.211 350.096 53.608 349.379 C 53.608 349.379 43.589 357.827 40.531 365.117 C 40.531 365.117 44.34 353.982 52.353 347.687 C 52.353 347.687 45.622 346.416 40.448 349.563 C 40.448 349.563 43.91 342.171 54.78 345.677 C 54.78 345.677 62.83 339.433 64.442 339.525 C 64.442 339.525 54.157 334.399 46.73 335.034 C 46.73 335.034 54.698 329.908 66.951 338.469 L 76.521 334.604 C 76.521 334.604 63.242 326.986 56.593 327.017 C 56.593 327.017 65.44 323.182 79.003 333.845 L 88.802 331.61 C 88.802 331.61 77.812 324.074 70.403 322.321 C 70.403 322.321 79.287 320.742 91.631 331.087 L 98.326 330.462 C 98.326 330.462 90.221 325.109 87.767 323.807 C 87.767 323.807 85.422 321.664 85.422 321.664 C 91.247 322.781 96.68 325.685 101.119 330.051 C 101.119 330.051 115.021 329.744 115.076 328.79 Z " fill="rgb(108,99,255)"/></g></g><g style="opacity:0.1;"><g opacity="0.1"><path d=" M 112.548 271.004 C 112.548 271.004 88.298 208.182 53.361 236.994 C 53.361 236.994 45.979 239.393 46.034 247.965 C 46.034 247.965 48.91 246.468 50.732 253.163 C 51.401 255.538 52.323 257.814 53.48 259.94 C 55.008 262.831 57.34 265.082 60.119 266.349 L 60.119 266.349 C 60.119 266.349 74.195 279.903 102.245 272.388 C 102.245 272.388 109.938 274.223 111.248 273.239 L 102.676 265.169 C 102.676 265.169 97.63 272.449 90.871 272.798 C 90.871 272.798 102.621 265.723 101.449 263.908 C 101.211 263.539 96.732 259.869 96.732 259.869 C 96.732 259.869 87.922 272.459 77.501 272.654 C 77.501 272.654 92.511 266.318 95.084 258.454 L 88.032 253.327 C 88.032 253.327 79.14 267.179 67.235 267.897 C 67.235 267.897 82.721 260.668 86.256 252.343 L 78.719 248.375 C 78.719 248.375 69.964 261.704 60.064 262.206 C 60.064 262.206 77.208 251.83 76.942 247.596 C 76.942 247.596 69.827 244.417 67.565 244.602 C 67.565 244.602 61.09 253.983 55.311 253.717 C 55.311 253.717 66.108 245.422 65.522 243.976 C 65.522 243.976 55.266 242.602 49.743 245.001 C 49.743 245.001 57.674 240.818 65.632 242.192 C 65.632 242.192 62.28 237.137 57.619 235.733 C 57.619 235.733 63.444 233.549 68.114 242.551 C 68.114 242.551 76.063 243.986 76.997 245.053 C 76.997 245.053 73.508 235.425 68.755 231.088 C 68.755 231.088 76.081 233.139 79.012 246.027 L 86.668 249.831 C 86.668 249.831 82.657 236.83 78.682 232.616 C 78.682 232.616 85.889 235.979 88.527 250.969 L 95.487 255.88 C 95.487 255.88 92.794 244.397 89.287 238.624 C 89.287 238.624 95.368 243.361 97.428 257.377 L 101.733 261.273 C 101.733 261.273 99.635 252.927 98.839 250.589 C 98.839 250.589 98.536 247.821 98.536 247.821 C 101.429 252.218 103.17 257.43 103.564 262.873 C 103.564 262.873 112.026 271.526 112.548 271.004 Z " fill="rgb(108,99,255)"/></g></g></g></g></svg>